<?xml version="1.0" encoding="UTF-8"?>
<!DOCTYPE svg PUBLIC "-//W3C//DTD SVG 1.0//EN" "http://www.w3.org/TR/2001/REC-SVG-20010904/DTD/svg10.dtd">
<!-- Creator: CorelDRAW X7 -->
<svg xmlns="http://www.w3.org/2000/svg" xml:space="preserve" width="3.75571in" height="5.33333in" version="1.0" style="shape-rendering:geometricPrecision; text-rendering:geometricPrecision; image-rendering:optimizeQuality; fill-rule:evenodd; clip-rule:evenodd"
viewBox="0 0 2411 3424"
 xmlns:xlink="http://www.w3.org/1999/xlink">
 <defs>
  <style type="text/css">
   <![CDATA[
    .fil0 {fill:#FEFEFE}
   ]]>
  </style>
 </defs>
 <g id="Layer_x0020_1">
  <metadata id="CorelCorpID_0Corel-Layer"/>
  <g id="_2209987108288">
   <g>
    <g>
     <g>
      <path class="fil0" d="M1206 0c-665,0 -1206,549 -1206,1225l0 975c0,675 541,1224 1206,1224 665,0 1205,-547 1205,-1220l0 -979c0,-676 -540,-1225 -1205,-1225zm979 2204c0,548 -439,994 -979,994 -540,0 -979,-448 -979,-998l0 -975c0,-551 439,-998 979,-998 540,0 979,447 979,998l0 979z" data-original="#000000" data-old_color="#000000"/>
     </g>
    </g>
    <g>
     <g>
      <path class="fil0" d="M1206 937c-63,0 -114,51 -114,114l0 397c0,62 51,113 114,113 62,0 113,-51 113,-113l0 -397c0,-63 -51,-114 -113,-114z" data-original="#000000" data-old_color="#000000"/>
     </g>
    </g>
   </g>
  </g>
 </g>
</svg>
